<svg xmlns="http://www.w3.org/2000/svg" viewBox="0 0 23 35"><defs><style>.cls-1{fill:#b9c7ba;}</style></defs><title>Clip</title><g id="Layer_2" data-name="Layer 2"><g id="Layer_14" data-name="Layer 14"><path class="cls-1" d="M16.84,8.76V22.53a5.27,5.27,0,0,1-5.44,5.16A5.22,5.22,0,0,1,6.16,22.6V8a8.24,8.24,0,0,1,8.42-8A8.24,8.24,0,0,1,23,8V24A11.18,11.18,0,0,1,13,34.91C6,35.74,0,30.54,0,24V8.76H3.08V24.05a8.24,8.24,0,0,0,8.42,8,8.24,8.24,0,0,0,8.42-8v-16a5.27,5.27,0,0,0-5.44-5.16A5.22,5.22,0,0,0,9.24,8V22.56a2.27,2.27,0,0,0,2.19,2.2,2.21,2.21,0,0,0,2.33-2.15V8.76Z"/></g></g></svg>