<?xml version="1.0" standalone="no"?>
<!DOCTYPE svg PUBLIC "-//W3C//DTD SVG 20010904//EN"
 "http://www.w3.org/TR/2001/REC-SVG-20010904/DTD/svg10.dtd">
<svg version="1.0" xmlns="http://www.w3.org/2000/svg"
 width="142.000000pt" height="94.000000pt" viewBox="0 0 142.000000 94.000000"
 preserveAspectRatio="xMidYMid meet">
<metadata>
Created by potrace 1.16, written by Peter Selinger 2001-2019
</metadata>
<g transform="translate(0.000000,94.000000) scale(0.100000,-0.100000)"
fill="#000000" stroke="none">
<path d="M541 924 c-79 -21 -148 -62 -211 -124 -74 -74 -105 -139 -134 -280
-4 -18 -16 -30 -39 -38 -45 -16 -105 -75 -128 -126 -43 -94 -12 -229 67 -294
72 -60 91 -62 580 -62 414 0 446 1 507 20 131 40 216 152 225 292 7 122 -35
215 -127 282 -47 34 -128 66 -165 66 -15 0 -28 14 -45 46 -32 60 -115 143
-177 176 -104 56 -241 72 -353 42z m214 -58 c113 -30 212 -106 267 -206 30
-56 33 -58 81 -63 142 -17 247 -132 247 -269 0 -95 -70 -198 -160 -237 -49
-21 -58 -22 -523 -19 l-473 3 -41 27 c-45 30 -83 98 -83 151 0 18 11 56 25 84
21 42 35 56 78 77 29 14 59 27 68 30 12 3 17 21 21 69 19 234 269 413 493 353z"/>
<path d="M602 507 c-83 -84 -94 -104 -66 -127 13 -11 23 -5 70 41 43 42 54 49
55 34 0 -11 1 -63 2 -115 l2 -95 33 -3 32 -3 0 118 0 117 55 -54 c53 -53 55
-53 75 -35 11 10 20 22 20 27 0 15 -167 178 -182 178 -7 0 -50 -37 -96 -83z"/>
</g>
</svg>
