<svg xmlns="http://www.w3.org/2000/svg" viewBox="0 0 35.06 35.68"><defs><style>.cls-1{fill:none;stroke:#000;stroke-linecap:round;stroke-miterlimit:10;stroke-width:3px;}</style></defs><title>Asset 1</title><g id="Layer_2" data-name="Layer 2"><g id="Dashboard_Rocket" data-name="Dashboard Rocket"><path class="cls-1" d="M5.35,21S16.92.48,30,1.54a3.78,3.78,0,0,1,3.37,3.05c.86,4.21-.21,13.27-18,25.38"/><path class="cls-1" d="M24.25,23,22.91,34a.25.25,0,0,1-.42.15l-5.36-5.39A77.16,77.16,0,0,0,24.25,23Z"/><path class="cls-1" d="M12.24,10.88,2,12.67a.54.54,0,0,0-.27.94l5.19,4.67A77.45,77.45,0,0,1,12.24,10.88Z"/><line class="cls-1" x1="14.85" y1="20.47" x2="4.35" y2="30.97"/></g></g></svg>