<svg xmlns="http://www.w3.org/2000/svg" viewBox="0 0 32.5 42.16"><defs><style>.cls-1{fill:none;stroke:#000;stroke-linecap:round;stroke-miterlimit:10;stroke-width:3.5px;}</style></defs><title>Invoices_1</title><g id="Layer_2" data-name="Layer 2"><g id="Invoices"><path class="cls-1" d="M30.75,2.77V38.62A.6.6,0,0,1,29.7,39l-3.18-3.44a1,1,0,0,0-1.5,0l-3.75,4.5a.6.6,0,0,1-1,0l-2.83-4.24a1,1,0,0,0-1.58-.11l-4,4.48a.6.6,0,0,1-.93,0L7.49,35.7a1,1,0,0,0-1.53,0L2.82,39.24a.61.61,0,0,1-1.07-.4V2.77a1,1,0,0,1,1-1h27A1,1,0,0,1,30.75,2.77Z"/><circle class="cls-1" cx="16.25" cy="18.75" r="4.5"/></g></g></svg>