<svg xmlns="http://www.w3.org/2000/svg" viewBox="0 0 41.5 28.6"><defs><style>.cls-1,.cls-2{fill:none;stroke:#000;stroke-linecap:round;stroke-miterlimit:10;}.cls-1{stroke-width:2.7px;}.cls-2{stroke-width:3.1px;}</style></defs><title>MyTeam</title><g id="Layer_2" data-name="Layer 2"><g id="My_team" data-name="My team"><circle class="cls-1" cx="10.32" cy="8.15" r="4.4"/><path class="cls-2" d="M2.17,23.57a1.18,1.18,0,0,1-.45-1.65,10.2,10.2,0,0,1,17.81-.05A1.14,1.14,0,0,1,19,23.51C16.31,24.72,9,27.29,2.17,23.57Z"/><circle class="cls-2" cx="29.28" cy="7.3" r="5.75"/><path class="cls-2" d="M20,24.85A1.36,1.36,0,0,1,19.49,23a11.6,11.6,0,0,1,20.27,0,1.3,1.3,0,0,1-.58,1.86C36.1,26.15,27.77,29.08,20,24.85Z"/></g></g></svg>