<svg xmlns="http://www.w3.org/2000/svg" viewBox="0 0 77.91 78.66"><title>Software</title><g id="Layer_2" data-name="Layer 2"><g id="Software"><path d="M1.94,78.66h27.6a1.92,1.92,0,0,0,1.8-1.22c1.64-4.24,5.41-16.39-.5-28.78a33.93,33.93,0,0,0-9.06-11.5,1.93,1.93,0,0,0-3,.64L.2,75.88A1.93,1.93,0,0,0,1.94,78.66Z"/><path d="M38.93.79A1.45,1.45,0,0,0,36.44.63a49,49,0,0,0-5.6,11,52,52,0,0,0-1.5,29,18.27,18.27,0,0,0,1.25,3.6Q38.53,61,46.44,77.83a1.46,1.46,0,0,0,1.32.83h28.7a1.45,1.45,0,0,0,1.29-2.11Z"/></g></g></svg>